<!--
blue: #D2EFF5
purple: #C8A7DD
grey: #D0D0D0
green: #99D3C1
-->
<svg viewBox="0 0 400 400" xmlns="http://www.w3.org/2000/svg">
  <rect x="0" y="0" width="400" height="100" fill="#C8A7DD" />
  <rect x="0" y="100" width="400" height="100" fill="#D2EFF5" />
  <rect x="0" y="200" width="400" height="100" fill="#99D3C1" />
  <rect x="0" y="300" width="400" height="100" fill="#99D3C1" />

  <circle cx="0" cy="50" r="50" fill="#D0D0D0" />
  <rect x="100" y="0" width="100" height="100" fill="#99D3C1" />
  <circle cx="200" cy="50" r="50" fill="#99D3C1" />
  <rect x="300" y="0" width="100" height="100" fill="#D0D0D0" />

  <rect x="0" y="100" width="100" height="100" fill="#99D3C1" />
  <circle cx="200" cy="150" r="50" fill="#D0D0D0" />
  <rect x="200" y="100" width="100" height="100" fill="#D0D0D0" />
  <circle cx="400" cy="150" r="50" fill="#99D3C1" />

  <rect x="100" y="200" width="100" height="100" fill="#D0D0D0" />
  <rect x="300" y="200" width="100" height="100" fill="#D0D0D0" />
  <circle cx="300" cy="250" r="50" fill="#D0D0D0" />
  <rect x="0" y="200" width="100" height="100" fill="#C8A7DD" />
  <circle cx="100" cy="250" r="50" fill="#C8A7DD" />

  <rect x="100" y="300" width="100" height="100" fill="#D2EFF5" />
  <rect x="300" y="300" width="100" height="100" fill="#D2EFF5" />
  <circle cx="100" cy="350" r="50" fill="#D2EFF5" />
  <circle cx="300" cy="350" r="50" fill="#C8A7DD" />
  <rect x="200" y="300" width="100" height="100" fill="#C8A7DD" />
</svg>
